<?xml version="1.0" encoding="UTF-8"?>
<svg id="Warstwa_1" data-name="Warstwa 1" xmlns="http://www.w3.org/2000/svg" viewBox="0 0 234.13 56.46">
  <defs>
    <style>
      .cls-1 {
        fill: none;
      }

      .cls-1, .cls-2, .cls-3 {
        stroke-width: 0px;
      }

      .cls-2 {
        fill: #332d32;
      }

      .cls-3 {
        fill: #00bb27;
      }
    </style>
  </defs>
  <g>
    <path class="cls-2" d="m57.13,11.64h-15.07v7.33h12.99v5.84h-12.99v7.61h15.07v5.89h-21.89V5.84h21.89v5.8Z"/>
    <path class="cls-2" d="m82.78,38.31l-10.07-13.13-2.5,2.74v10.39h-7V5.84h7v13.82l11.87-13.82h8.58l-13.13,14.19,14.05,18.27h-8.81Z"/>
    <path class="cls-2" d="m112.42,6.02c1.86.62,3.42,1.38,4.68,2.27l-2.88,5.1c-1.15-.8-2.42-1.45-3.83-1.95-1.41-.49-2.75-.74-4.01-.74-1.55,0-2.75.32-3.62.95-.87.63-1.3,1.51-1.3,2.62s.51,1.99,1.53,2.62c1.02.63,2.58,1.32,4.68,2.06,2.16.77,3.9,1.48,5.19,2.13,1.3.65,2.44,1.6,3.41,2.85s1.46,2.85,1.46,4.8c0,2.07-.53,3.87-1.6,5.38s-2.56,2.68-4.48,3.5c-1.92.82-4.11,1.23-6.59,1.23-2.01,0-4.06-.27-6.15-.81-2.09-.54-3.92-1.28-5.5-2.2l2.13-5.66c1.48.8,3.05,1.45,4.71,1.92,1.65.48,3.28.72,4.89.72,1.76,0,3.08-.34,3.97-1.02.88-.68,1.32-1.58,1.32-2.69s-.48-1.98-1.44-2.6c-.96-.62-2.43-1.25-4.41-1.9-2.23-.71-4.02-1.4-5.38-2.06-1.36-.67-2.53-1.64-3.5-2.92-.97-1.28-1.46-2.96-1.46-5.03,0-1.92.5-3.59,1.51-5.03,1-1.44,2.42-2.54,4.24-3.32,1.82-.77,3.93-1.16,6.31-1.16,2.2,0,4.22.31,6.08.93Z"/>
    <path class="cls-2" d="m122.95,5.84h11.36c4.05,0,7.15.92,9.3,2.76s3.22,4.34,3.22,7.49c0,2.1-.48,4.01-1.44,5.73-.96,1.72-2.38,3.08-4.27,4.1-1.89,1.02-4.16,1.53-6.82,1.53h-4.55v10.85h-6.82V5.84Zm11.18,15.82c1.73,0,3.07-.46,4.01-1.39.94-.93,1.41-2.21,1.41-3.85s-.47-2.81-1.41-3.59c-.94-.79-2.3-1.18-4.06-1.18h-4.31v10.02h4.36Z"/>
    <path class="cls-2" d="m173.13,11.64h-15.07v7.33h12.99v5.84h-12.99v7.61h15.07v5.89h-21.89V5.84h21.89v5.8Z"/>
    <path class="cls-2" d="m198.18,38.31l-6.54-10.95h-5.61v10.95h-6.82V5.84h12.15c4.45,0,7.73.89,9.83,2.67s3.15,4.26,3.15,7.44c0,2.5-.55,4.59-1.65,6.26-1.1,1.67-2.64,2.94-4.61,3.8l7.65,12.29h-7.56Zm-12.15-16.79h5.33c1.79,0,3.19-.46,4.2-1.37,1-.91,1.51-2.17,1.51-3.78s-.49-2.76-1.46-3.55c-.97-.79-2.53-1.18-4.66-1.18h-4.92v9.88Z"/>
    <path class="cls-2" d="m217.48,11.68h-9.83v-5.84h26.49v5.84h-9.83v26.62h-6.82V11.68Z"/>
    <path class="cls-2" d="m44.63,44.79c.5.14.92.34,1.26.6l-.59.93c-.65-.43-1.42-.64-2.31-.64-.56,0-1.07.13-1.52.39-.46.26-.82.66-1.09,1.21-.27.54-.41,1.22-.41,2.02,0,1.19.28,2.07.84,2.66.56.59,1.28.88,2.18.88.5,0,.95-.07,1.34-.21.39-.14.77-.36,1.13-.65l.63.88c-.39.34-.85.61-1.38.8-.54.19-1.13.28-1.77.28-.81,0-1.53-.17-2.16-.52-.63-.34-1.13-.87-1.5-1.57-.37-.7-.55-1.57-.55-2.6s.19-1.88.56-2.59c.37-.7.88-1.23,1.53-1.57.64-.34,1.37-.52,2.19-.52.58,0,1.13.07,1.62.21Z"/>
    <path class="cls-2" d="m53.03,50.75h-4.9c.13,1.49.87,2.23,2.22,2.23.44,0,.84-.07,1.19-.21.36-.14.66-.32.92-.54l.54.76c-.36.3-.77.53-1.22.7-.45.17-.98.25-1.58.25s-1.15-.13-1.64-.39c-.49-.26-.88-.66-1.17-1.19-.29-.53-.44-1.17-.44-1.94s.13-1.38.4-1.92c.27-.54.64-.96,1.13-1.24.48-.29,1.04-.43,1.67-.43s1.18.14,1.62.43c.45.29.78.67,1,1.15.22.48.33,1,.33,1.57,0,.26-.02.52-.06.77Zm-4.28-2.43c-.36.37-.57.89-.62,1.58h3.89c-.03-.66-.19-1.18-.5-1.56s-.75-.57-1.33-.57-1.07.18-1.44.55Z"/>
    <path class="cls-2" d="m54.73,47.02h.8l.18,1.03h.04c.33-.4.67-.69,1.04-.9.36-.2.81-.3,1.32-.3.71,0,1.27.19,1.66.57.39.38.59.94.59,1.67v4.68h-1.16v-4.34c0-.55-.11-.94-.33-1.17-.22-.23-.53-.34-.95-.34-.82,0-1.51.42-2.06,1.25v4.6h-1.13v-6.75Z"/>
    <path class="cls-2" d="m62.72,52.47v-4.46h-1.12v-.99h1.12v-.99l.57-.75h.61v1.74h1.65v.99h-1.65v4.25c0,.22.05.39.15.49s.24.15.4.15c.26,0,.55-.07.89-.22l.31.88c-.44.25-.91.37-1.4.37-1.01,0-1.52-.49-1.52-1.47Z"/>
    <path class="cls-2" d="m67.09,47.02h.88l.21.99h.04c.32-.77.87-1.16,1.65-1.16.32,0,.56.06.73.17l-.19,1.04c-.22-.08-.45-.12-.68-.12-.69,0-1.18.48-1.48,1.44v4.38h-1.15v-6.75Z"/>
    <path class="cls-2" d="m77.42,47.02v6.75h-.84l-.25-1.01c-.3.38-.63.67-.99.86s-.79.3-1.29.3c-.66,0-1.19-.2-1.59-.59-.4-.39-.6-1-.6-1.8v-4.51h1.15v4.24c0,1.08.42,1.62,1.25,1.62.41,0,.78-.1,1.09-.32.31-.21.62-.5.92-.87v-4.68h1.15Z"/>
    <path class="cls-2" d="m88.25,47.45c.38.4.57.97.57,1.72v4.6h-1.17v-4.51c0-.92-.39-1.38-1.17-1.38-.36,0-.69.1-.98.3-.29.2-.56.51-.8.92v4.66h-1.19v-4.55c0-.47-.11-.81-.33-1.02-.22-.21-.51-.32-.85-.32-.37,0-.71.11-1.01.34s-.56.52-.75.89v4.66h-1.17v-6.75h.9l.15.97h.04c.27-.39.57-.68.88-.86.31-.18.7-.27,1.15-.27.49,0,.89.1,1.21.29s.57.5.75.91c.29-.42.62-.73.98-.92.36-.19.76-.28,1.21-.28.67,0,1.2.2,1.58.6Z"/>
    <path class="cls-2" d="m94.63,44.75h2.78c1.02,0,1.8.24,2.35.72.54.48.81,1.13.81,1.96,0,.55-.12,1.05-.36,1.49-.24.44-.6.79-1.07,1.06-.47.26-1.04.39-1.71.39h-1.6v3.4h-1.2v-9.02Zm2.71,4.57c.64,0,1.12-.16,1.46-.49.33-.33.5-.78.5-1.37,0-1.12-.65-1.67-1.96-1.67h-1.51v3.53h1.51Z"/>
    <path class="cls-2" d="m101.87,47.02h.88l.21.99h.04c.32-.77.87-1.16,1.65-1.16.32,0,.56.06.73.17l-.19,1.04c-.22-.08-.45-.12-.68-.12-.69,0-1.18.48-1.48,1.44v4.38h-1.15v-6.75Z"/>
    <path class="cls-2" d="m110.82,47.24c.5.26.91.65,1.21,1.18.3.53.46,1.19.46,1.98s-.15,1.45-.46,1.98c-.31.53-.71.92-1.21,1.18-.5.26-1.05.39-1.64.39s-1.14-.13-1.64-.39c-.5-.26-.91-.65-1.21-1.18-.3-.53-.46-1.19-.46-1.98s.15-1.45.46-1.98c.3-.53.71-.92,1.21-1.18.5-.26,1.05-.39,1.64-.39s1.14.13,1.64.39Zm-3.19,1.31c-.38.44-.57,1.06-.57,1.85s.19,1.41.57,1.85c.38.44.89.66,1.55.66s1.17-.22,1.55-.67c.38-.45.57-1.06.57-1.84s-.19-1.4-.57-1.84c-.38-.45-.9-.67-1.55-.67s-1.17.22-1.55.66Z"/>
    <path class="cls-2" d="m117.5,44.05l-.19.92c-.21-.06-.45-.09-.7-.09-.69,0-1.03.31-1.03.94v1.2h1.66v.99h-1.66v5.76h-1.17v-5.76h-1.01v-.99h1.01v-1.19c0-.64.18-1.12.54-1.44.36-.32.86-.48,1.49-.48.4,0,.76.05,1.06.14Zm2.34.65c.15.13.23.31.23.55s-.08.43-.23.55-.33.19-.55.19-.39-.06-.54-.19c-.15-.13-.22-.31-.22-.55s.07-.42.22-.55c.15-.12.33-.19.54-.19s.4.06.55.19Zm.03,9.06h-1.16v-6.75h1.16v6.75Z"/>
    <path class="cls-2" d="m123.12,53.77h-1.16v-9.69h1.16v9.69Z"/>
    <path class="cls-2" d="m130.99,52.94l-.09.77c-.15.09-.37.14-.66.14s-.54-.08-.71-.23c-.18-.15-.3-.39-.36-.72-.59.68-1.34,1.02-2.25,1.02-.63,0-1.15-.17-1.57-.5s-.62-.81-.62-1.42c0-.68.26-1.19.77-1.52.52-.33,1.16-.5,1.95-.5.27,0,.56.02.87.05s.56.07.75.12v-.89c0-.51-.15-.87-.44-1.1-.3-.23-.68-.34-1.17-.34-.66,0-1.28.22-1.86.66l-.5-.75c.71-.59,1.56-.89,2.54-.89.85,0,1.5.2,1.93.61.44.4.66,1.01.66,1.8v3.16c0,.36.14.54.42.54h.33Zm-2.74-.21c.34-.18.62-.42.84-.73v-1.01c-.18-.04-.42-.08-.73-.12-.31-.03-.58-.05-.83-.05-.48,0-.88.09-1.2.27-.32.18-.48.47-.48.86,0,.35.13.61.39.79s.56.26.92.26c.39,0,.75-.09,1.1-.27Z"/>
    <path class="cls-2" d="m136.73,53.77l-2.33-3.08-.85.93v2.15h-1.16v-9.69h1.16v6.17l2.81-3.23h1.38l-2.58,2.83,3,3.92h-1.43Z"/>
    <path class="cls-2" d="m139.7,52.47v-4.46h-1.12v-.99h1.12v-.99l.57-.75h.61v1.74h1.65v.99h-1.65v4.25c0,.22.05.39.15.49s.24.15.4.15c.26,0,.55-.07.89-.22l.31.88c-.44.25-.9.37-1.4.37-1.01,0-1.52-.49-1.52-1.47Z"/>
    <path class="cls-2" d="m149.96,47.02l-2.63,7.18c-.27.76-.62,1.32-1.02,1.7-.41.38-.92.57-1.53.57-.39,0-.76-.06-1.11-.17l.21-.9c.1.03.23.06.38.09.15.03.28.04.41.04.28,0,.55-.1.81-.32.25-.21.45-.5.6-.88l.13-.35-2.85-6.96h1.22l2.19,5.77,1.98-5.77h1.21Z"/>
    <path class="cls-2" d="m155.52,53.77l-2.33-3.08-.85.93v2.15h-1.16v-9.69h1.16v6.17l2.81-3.23h1.38l-2.58,2.83,3,3.92h-1.43Z"/>
    <path class="cls-2" d="m159.23,44.7c.15.13.22.31.22.55s-.07.43-.22.55c-.15.13-.33.19-.55.19s-.39-.06-.54-.19-.22-.31-.22-.55.07-.42.22-.55c.15-.12.33-.19.54-.19s.4.06.55.19Zm.03,9.06h-1.16v-6.75h1.16v6.75Z"/>
    <path class="cls-2" d="m166.16,53.1c-.65-.56-.97-1.42-.97-2.59v-5.76h1.2v5.81c0,.71.2,1.27.59,1.66.39.39.95.59,1.67.59s1.28-.19,1.67-.59c.39-.39.59-.94.59-1.66v-5.81h1.2v5.76c0,1.17-.32,2.03-.97,2.59-.65.56-1.47.84-2.48.84s-1.83-.28-2.48-.84Z"/>
    <path class="cls-2" d="m178.78,47.92l-3.7,4.84h3.83v1.01h-5.15v-.85l3.63-4.88h-3.52v-1.02h4.91v.9Z"/>
    <path class="cls-2" d="m186.12,52.94l-.09.77c-.15.09-.37.14-.66.14s-.54-.08-.72-.23c-.18-.15-.29-.39-.35-.72-.59.68-1.34,1.02-2.25,1.02-.63,0-1.15-.17-1.57-.5-.42-.33-.62-.81-.62-1.42,0-.68.26-1.19.77-1.52.52-.33,1.16-.5,1.95-.5.27,0,.56.02.87.05.3.03.56.07.75.12v-.89c0-.51-.15-.87-.44-1.1s-.68-.34-1.17-.34c-.66,0-1.28.22-1.86.66l-.5-.75c.71-.59,1.56-.89,2.54-.89.85,0,1.49.2,1.93.61.44.4.66,1.01.66,1.8v3.16c0,.36.14.54.43.54h.33Zm-2.74-.21c.34-.18.62-.42.84-.73v-1.01c-.18-.04-.42-.08-.73-.12-.3-.03-.58-.05-.83-.05-.48,0-.88.09-1.2.27s-.48.47-.48.86c0,.35.13.61.39.79s.56.26.92.26c.39,0,.75-.09,1.1-.27Z"/>
    <path class="cls-2" d="m188.67,53.77h-1.16v-9.69h1.16v9.69Z"/>
    <path class="cls-2" d="m196.34,50.75h-4.9c.13,1.49.87,2.23,2.22,2.23.44,0,.84-.07,1.19-.21.36-.14.66-.32.92-.54l.54.76c-.36.3-.77.53-1.22.7-.45.17-.98.25-1.58.25s-1.15-.13-1.64-.39-.88-.66-1.17-1.19c-.29-.53-.44-1.17-.44-1.94s.13-1.38.4-1.92c.27-.54.64-.96,1.13-1.24.49-.29,1.04-.43,1.67-.43s1.18.14,1.62.43c.45.29.78.67,1,1.15.22.48.33,1,.33,1.57,0,.26-.02.52-.07.77Zm-4.28-2.43c-.37.37-.57.89-.62,1.58h3.89c-.03-.66-.19-1.18-.5-1.56-.31-.38-.75-.57-1.33-.57s-1.07.18-1.44.55Z"/>
    <path class="cls-2" d="m202.54,47.92l-3.7,4.84h3.83v1.01h-5.15v-.85l3.63-4.88h-3.52v-1.02h4.91v.9Zm-1.8-3.21c.15.13.23.31.23.55s-.08.43-.23.55c-.15.13-.33.19-.55.19s-.39-.06-.54-.19-.22-.31-.22-.55.07-.42.22-.55c.15-.12.33-.19.54-.19s.4.06.55.19Z"/>
    <path class="cls-2" d="m204.13,47.02h.8l.18,1.03h.04c.33-.4.67-.69,1.04-.9.37-.2.81-.3,1.32-.3.71,0,1.27.19,1.66.57.39.38.59.94.59,1.67v4.68h-1.16v-4.34c0-.55-.11-.94-.33-1.17-.22-.23-.54-.34-.95-.34-.82,0-1.51.42-2.06,1.25v4.6h-1.13v-6.75Z"/>
    <path class="cls-2" d="m212.88,44.7c.15.13.22.31.22.55s-.07.43-.22.55c-.15.13-.33.19-.55.19s-.39-.06-.54-.19-.22-.31-.22-.55.07-.42.22-.55c.15-.12.33-.19.54-.19s.4.06.55.19Zm.03,9.06h-1.16v-6.75h1.16v6.75Z"/>
    <path class="cls-2" d="m220.61,50.75h-4.9c.13,1.49.87,2.23,2.22,2.23.44,0,.84-.07,1.19-.21.36-.14.66-.32.92-.54l.54.76c-.36.3-.77.53-1.22.7-.45.17-.98.25-1.58.25s-1.15-.13-1.64-.39-.88-.66-1.17-1.19c-.29-.53-.44-1.17-.44-1.94s.13-1.38.4-1.92c.27-.54.64-.96,1.13-1.24.49-.29,1.04-.43,1.67-.43s1.18.14,1.62.43c.45.29.78.67,1,1.15.22.48.33,1,.33,1.57,0,.26-.02.52-.07.77Zm-4.28-2.43c-.37.37-.57.89-.62,1.58h3.89c-.03-.66-.19-1.18-.5-1.56-.31-.38-.75-.57-1.33-.57s-1.07.18-1.44.55Z"/>
    <path class="cls-2" d="m222.31,47.02h.8l.18,1.03h.04c.33-.4.67-.69,1.04-.9.37-.2.81-.3,1.32-.3.71,0,1.27.19,1.66.57.39.38.59.94.59,1.67v4.68h-1.16v-4.34c0-.55-.11-.94-.33-1.17-.22-.23-.54-.34-.95-.34-.82,0-1.51.42-2.06,1.25v4.6h-1.13v-6.75Zm2.94-.85h-.84l.92-1.57h1.47l-1.55,1.57Z"/>
  </g>
  <g>
    <g>
      <path class="cls-1" d="m30.56,10.02l1.1-1.83-5.14-3.09-.16.26c1.66,1.3,3.07,2.87,4.2,4.66Z"/>
      <path class="cls-3" d="m11.72,29.72l3.5,5.83,3.5-5.83,11.84-19.7c-1.12-1.79-2.54-3.37-4.2-4.66l-11.14,18.54-3.5,5.82Z"/>
      <path class="cls-1" d="m4.09,5.35l-.15-.25-5.15,3.09L-.12,10.02c1.12-1.79,2.54-3.37,4.2-4.67Z"/>
      <path class="cls-2" d="m15.22,35.55l3.5-5.83-3.5-5.82L4.09,5.35C2.43,6.65,1.01,8.23-.12,10.02l11.84,19.7,3.5,5.83Z"/>
    </g>
    <path class="cls-2" d="m15.23,23.89h0s-3.5,5.83-3.5,5.83l3.5,5.83,3.5-5.83,2.12-3.52c-.43.13-.88.22-1.36.22-1.84,0-3.42-1.03-4.25-2.53Z"/>
    <circle class="cls-2" cx="15.22" cy="5.94" r="5.94"/>
  </g>
</svg>